<svg id="Layer_1" data-name="Layer 1" xmlns="http://www.w3.org/2000/svg" viewBox="0 0 177.15 46.62"><defs><style>.cls-1{fill:#eae61d;}.cls-2{fill:#de0d7d;}.cls-3{fill:none;}.cls-4{fill:#269ad6;}.cls-5{fill:#231f20;}.cls-6{fill:#1c2539;}</style></defs><path class="cls-1" d="M25.75,41.17h-20V19.49a10,10,0,0,1,10-10h0a10,10,0,0,1,10,10Z" transform="translate(-1.93 -1.4)"/><path class="cls-2" d="M44.34,5.77h0A11.21,11.21,0,0,0,33.12,17V34.22H55.56V17A11.21,11.21,0,0,0,44.34,5.77Z" transform="translate(-1.93 -1.4)"/><polygon class="cls-3" points="16.99 18.99 16.99 18.99 16.99 18.99 16.99 18.99"/><path class="cls-4" d="M59.52,39V16.61a15.21,15.21,0,0,0-30.4-.78A13.72,13.72,0,0,0,15.78,5.26h-.15A13.7,13.7,0,0,0,1.93,19V45.54H59.44V42.93H4.14V19.34A11.21,11.21,0,0,1,15.35,8.13h.7A11.21,11.21,0,0,1,27.26,19.34V39Zm-27.9-22a12.69,12.69,0,1,1,25.37,0V36.23H31.62Z" transform="translate(-1.93 -1.4)"/><path class="cls-5" d="M18.92,20.39h0a1.27,1.27,0,0,0,0,.2A.54.54,0,0,0,18.92,20.39Z" transform="translate(-1.93 -1.4)"/><path class="cls-6" d="M74.85,4a27.06,27.06,0,0,1,4.06.23,5.49,5.49,0,0,1,2.51,1,5.28,5.28,0,0,1,1.9,2.54A9.87,9.87,0,0,1,83.86,11c0,2.89-1,4.93-3.08,6.12l-.27.12c-.23.11-.41.2-.54.25a1.59,1.59,0,0,0,.33.09,5.1,5.1,0,0,1,.72.16,7,7,0,0,1,1,.4,5.18,5.18,0,0,1,1.39,1.1,6.75,6.75,0,0,1,1.28,2.23A9.83,9.83,0,0,1,85.19,25a11.27,11.27,0,0,1-.61,3.83A7.3,7.3,0,0,1,83,31.32a5.64,5.64,0,0,1-2.12,1.37,9.68,9.68,0,0,1-2.34.54,24.24,24.24,0,0,1-2.71.13h-10V4Zm-3,12.19h1.83a11.75,11.75,0,0,0,1.85-.12,2.66,2.66,0,0,0,1.27-.59,4,4,0,0,0,.85-1.16,5.36,5.36,0,0,0,.44-2.42,6.36,6.36,0,0,0-.34-2.16,2.58,2.58,0,0,0-1.49-1.6,9.89,9.89,0,0,0-2.88-.31H71.83Zm0,3.66v9.7l1.36,0,1.78,0a5.11,5.11,0,0,0,1.1-.15,3.32,3.32,0,0,0,2-1.2,4,4,0,0,0,.73-1.48A7.88,7.88,0,0,0,79,24.58c0-.28,0-.57,0-.88a6,6,0,0,0-.2-1.08,4.33,4.33,0,0,0-.54-1.21,3.11,3.11,0,0,0-1-.95,3.45,3.45,0,0,0-1.47-.52,19.11,19.11,0,0,0-2.29-.11Z" transform="translate(-1.93 -1.4)"/><path class="cls-6" d="M98.07,18.83a6.78,6.78,0,0,0-.34-2.53,1.82,1.82,0,0,0-.93-1,3.07,3.07,0,0,0-1.07-.21,2.43,2.43,0,0,0-1.31.33,2.48,2.48,0,0,0-.79.79,3.34,3.34,0,0,0-.46,1.21A10.86,10.86,0,0,0,93,19v.08H87.76a17.47,17.47,0,0,1,.1-1.95,5.64,5.64,0,0,1,.44-1.54,5,5,0,0,1,1.31-1.75,6.2,6.2,0,0,1,1.88-1.1,10.06,10.06,0,0,1,2.19-.56A16.49,16.49,0,0,1,96.07,12a16,16,0,0,1,3.08.29,7.39,7.39,0,0,1,1.63.5,3.85,3.85,0,0,1,1.29.92,4.52,4.52,0,0,1,1.2,2.28,16.75,16.75,0,0,1,.25,3.17v10c0,.7,0,1.23,0,1.59a6.61,6.61,0,0,0,.12,1.08,3,3,0,0,0,.24.83,1.89,1.89,0,0,0,.34.46v.25H99.73a2,2,0,0,1-1.48-.44A3.18,3.18,0,0,1,97.86,31a10,10,0,0,1-.78.91,7.12,7.12,0,0,1-1.08.88,7.73,7.73,0,0,1-1.63.79,6.44,6.44,0,0,1-2.13.33,5.38,5.38,0,0,1-2.12-.42,3.68,3.68,0,0,1-1.65-1.33,5.91,5.91,0,0,1-.86-1.89,9.44,9.44,0,0,1-.32-2.6,9.27,9.27,0,0,1,0-1,7.06,7.06,0,0,1,.25-1.25,6.86,6.86,0,0,1,.63-1.44,4.82,4.82,0,0,1,1.14-1.31,6.12,6.12,0,0,1,2.2-1.08,28.54,28.54,0,0,1,3.83-.71l2.68-.33Zm0,4.37H98c-.88.09-1.48.16-1.78.21s-.61.13-.9.21a3.71,3.71,0,0,0-1.81,1.14,3.52,3.52,0,0,0-.7,2.36A6.48,6.48,0,0,0,93,28.49a2.64,2.64,0,0,0,.83,1.43,2.06,2.06,0,0,0,1.34.44,3.57,3.57,0,0,0,1-.16,2.54,2.54,0,0,0,1-.67,2.9,2.9,0,0,0,.72-1.44,9.31,9.31,0,0,0,.16-1.85Z" transform="translate(-1.93 -1.4)"/><path class="cls-6" d="M123.05,25.91V26a15.53,15.53,0,0,1-.15,1.71,8.91,8.91,0,0,1-.46,1.75,6.37,6.37,0,0,1-1.36,2.16A6.14,6.14,0,0,1,119.22,33a8.78,8.78,0,0,1-2.14.69,12.38,12.38,0,0,1-2.3.21,11,11,0,0,1-3.21-.48,6.33,6.33,0,0,1-2.89-2,8.32,8.32,0,0,1-1.22-2,9.54,9.54,0,0,1-.68-2.19,16.28,16.28,0,0,1-.26-2c0-.62,0-1.35,0-2.18,0-.64,0-1.26,0-1.85a17.8,17.8,0,0,1,.26-2,11.15,11.15,0,0,1,.66-2.31,7.82,7.82,0,0,1,1.24-2.13,6.46,6.46,0,0,1,1.64-1.47,7.66,7.66,0,0,1,1.8-.84,8,8,0,0,1,1.62-.33c.49,0,1-.06,1.45-.06a10.16,10.16,0,0,1,3.47.5,6,6,0,0,1,2.15,1.29A5.59,5.59,0,0,1,122,15.3a7.22,7.22,0,0,1,.67,1.66A8.94,8.94,0,0,1,123,18.5a13.37,13.37,0,0,1,.07,1.42V20h-5.36a9.22,9.22,0,0,0-.66-3.52,2,2,0,0,0-2-1.31c-1.08,0-1.86.67-2.34,2a18.9,18.9,0,0,0-.71,5.95c0,.44,0,.94,0,1.48s.06,1.12.12,1.72a12.85,12.85,0,0,0,.27,1.79,4.23,4.23,0,0,0,.49,1.38,2.71,2.71,0,0,0,.79.89,1.94,1.94,0,0,0,1.17.36,2.23,2.23,0,0,0,2-1.34,4,4,0,0,0,.47-1.29,10.6,10.6,0,0,0,.24-2.2Z" transform="translate(-1.93 -1.4)"/><path class="cls-6" d="M135.49,18.83a6.57,6.57,0,0,0-.34-2.53,1.82,1.82,0,0,0-.93-1,3,3,0,0,0-1.07-.21,2.39,2.39,0,0,0-1.3.33,2.52,2.52,0,0,0-.8.79,3.34,3.34,0,0,0-.46,1.21,10.86,10.86,0,0,0-.15,1.54v.08h-5.26a15.14,15.14,0,0,1,.11-1.95,5,5,0,0,1,.44-1.54,4.86,4.86,0,0,1,1.3-1.75,6.32,6.32,0,0,1,1.88-1.1,10.06,10.06,0,0,1,2.19-.56,16.6,16.6,0,0,1,2.39-.17,16,16,0,0,1,3.08.29,7.39,7.39,0,0,1,1.63.5,3.85,3.85,0,0,1,1.29.92,4.52,4.52,0,0,1,1.2,2.28,16.66,16.66,0,0,1,.26,3.17v10c0,.7,0,1.23,0,1.59a9.91,9.91,0,0,0,.12,1.08,3,3,0,0,0,.24.83,1.89,1.89,0,0,0,.34.46v.25h-4.51a1.94,1.94,0,0,1-1.47-.44,3.18,3.18,0,0,1-.39-1.93,10,10,0,0,1-.78.91,7.25,7.25,0,0,1-1.09.88,7.5,7.5,0,0,1-1.63.79,6.44,6.44,0,0,1-2.13.33,5.42,5.42,0,0,1-2.12-.42,3.66,3.66,0,0,1-1.64-1.33,6.14,6.14,0,0,1-.87-1.89,9.84,9.84,0,0,1-.32-2.6c0-.34,0-.68.05-1a7.17,7.17,0,0,1,.26-1.25,6.32,6.32,0,0,1,.62-1.44,4.82,4.82,0,0,1,1.14-1.31,6.2,6.2,0,0,1,2.2-1.08,28.54,28.54,0,0,1,3.83-.71l2.68-.33Zm0,4.37h-.07c-.88.09-1.47.16-1.78.21s-.6.13-.9.21a3.71,3.71,0,0,0-1.81,1.14,3.57,3.57,0,0,0-.69,2.36,6.51,6.51,0,0,0,.13,1.37,2.64,2.64,0,0,0,.83,1.43,2.06,2.06,0,0,0,1.34.44,3.57,3.57,0,0,0,1.05-.16,2.54,2.54,0,0,0,1-.67,2.91,2.91,0,0,0,.73-1.44,10.18,10.18,0,0,0,.15-1.85Z" transform="translate(-1.93 -1.4)"/><path class="cls-6" d="M160.47,25.91V26a15.53,15.53,0,0,1-.15,1.71,8.26,8.26,0,0,1-.46,1.75,6.51,6.51,0,0,1-1.35,2.16A6.31,6.31,0,0,1,156.64,33a8.84,8.84,0,0,1-2.13.69,12.56,12.56,0,0,1-2.31.21,10.94,10.94,0,0,1-3.2-.48,6.36,6.36,0,0,1-2.9-2,8.65,8.65,0,0,1-1.22-2,10.05,10.05,0,0,1-.68-2.19,16.16,16.16,0,0,1-.25-2c0-.62,0-1.35,0-2.18,0-.64,0-1.26,0-1.85a17.59,17.59,0,0,1,.25-2,12.53,12.53,0,0,1,.66-2.31,8.08,8.08,0,0,1,1.24-2.13,6.63,6.63,0,0,1,1.64-1.47,7.66,7.66,0,0,1,1.8-.84,8,8,0,0,1,1.63-.33q.72-.06,1.44-.06a10.16,10.16,0,0,1,3.47.5,6.05,6.05,0,0,1,2.16,1.29,5.75,5.75,0,0,1,1.2,1.5,7.75,7.75,0,0,1,.68,1.66,9.91,9.91,0,0,1,.28,1.54,13.37,13.37,0,0,1,.07,1.42V20h-5.35a9.62,9.62,0,0,0-.66-3.52,2,2,0,0,0-2-1.31c-1.09,0-1.87.67-2.34,2a18.61,18.61,0,0,0-.71,5.95c0,.44,0,.94,0,1.48s.06,1.12.12,1.72a14.54,14.54,0,0,0,.27,1.79,4.47,4.47,0,0,0,.49,1.38,2.63,2.63,0,0,0,.8.89,1.89,1.89,0,0,0,1.17.36,2.21,2.21,0,0,0,2-1.34,4.16,4.16,0,0,0,.48-1.29,11.43,11.43,0,0,0,.23-2.2Z" transform="translate(-1.93 -1.4)"/><path class="cls-6" d="M172.91,18.83a6.57,6.57,0,0,0-.34-2.53,1.78,1.78,0,0,0-.93-1,3,3,0,0,0-1.07-.21,2.39,2.39,0,0,0-1.3.33,2.52,2.52,0,0,0-.8.79,3.54,3.54,0,0,0-.46,1.21,12.56,12.56,0,0,0-.15,1.54v.08h-5.25a15.35,15.35,0,0,1,.1-1.95,5.31,5.31,0,0,1,.44-1.54,4.89,4.89,0,0,1,1.31-1.75,6.2,6.2,0,0,1,1.88-1.1,10.12,10.12,0,0,1,2.18-.56,16.7,16.7,0,0,1,2.39-.17,16.05,16.05,0,0,1,3.09.29,7.14,7.14,0,0,1,1.62.5,3.85,3.85,0,0,1,1.29.92A4.46,4.46,0,0,1,178.12,16a16.75,16.75,0,0,1,.25,3.17v10c0,.7,0,1.23,0,1.59a6.61,6.61,0,0,0,.12,1.08,2.75,2.75,0,0,0,.23.83,2.19,2.19,0,0,0,.34.46v.25h-4.51a1.94,1.94,0,0,1-1.47-.44,3.18,3.18,0,0,1-.39-1.93,10,10,0,0,1-.78.91,7.12,7.12,0,0,1-1.08.88,8,8,0,0,1-1.63.79,6.5,6.5,0,0,1-2.14.33,5.45,5.45,0,0,1-2.12-.42,3.71,3.71,0,0,1-1.64-1.33,5.91,5.91,0,0,1-.86-1.89,9.43,9.43,0,0,1-.33-2.6c0-.34,0-.68.05-1a7.17,7.17,0,0,1,.26-1.25,6,6,0,0,1,.63-1.44,5,5,0,0,1,1.13-1.31,6.2,6.2,0,0,1,2.2-1.08,28.75,28.75,0,0,1,3.84-.71l2.67-.33Zm0,4.37h-.06c-.89.09-1.48.16-1.78.21s-.61.13-.9.21a3.74,3.74,0,0,0-1.82,1.14,3.57,3.57,0,0,0-.69,2.36,6.51,6.51,0,0,0,.13,1.37,2.64,2.64,0,0,0,.83,1.43,2.08,2.08,0,0,0,1.34.44,3.57,3.57,0,0,0,1-.16,2.42,2.42,0,0,0,1-.67,2.83,2.83,0,0,0,.73-1.44,10.18,10.18,0,0,0,.15-1.85Z" transform="translate(-1.93 -1.4)"/><path class="cls-6" d="M68.54,42.46v3.08H66.35V37.05h4.26a3.54,3.54,0,0,1,.48,0,2.38,2.38,0,0,1,.74.24,1.85,1.85,0,0,1,.59.46,2,2,0,0,1,.39.76A4.1,4.1,0,0,1,73,39.68a4.06,4.06,0,0,1-.2,1.29,2,2,0,0,1-.65,1,2.06,2.06,0,0,1-1,.44,7.8,7.8,0,0,1-1.38.1Zm0-1.13h.73a3.49,3.49,0,0,0,.61,0,1.12,1.12,0,0,0,.46-.2,1.13,1.13,0,0,0,.32-.49,2.6,2.6,0,0,0,.12-.87,2.25,2.25,0,0,0-.13-.86,1,1,0,0,0-.34-.47,1.3,1.3,0,0,0-.46-.18,5,5,0,0,0-.58,0h-.73Z" transform="translate(-1.93 -1.4)"/><path class="cls-6" d="M82.66,45.54h-2v-6h2V40.6a2.14,2.14,0,0,1,.19-.4,2.18,2.18,0,0,1,.26-.33,1.52,1.52,0,0,1,1-.44l.25,0,.24.09h0v1.59a3.26,3.26,0,0,0-.43-.2,1.19,1.19,0,0,0-.47-.08l-.23,0a1.25,1.25,0,0,0-.29.1,1,1,0,0,0-.49.49,2,2,0,0,0-.1.69Z" transform="translate(-1.93 -1.4)"/><path class="cls-6" d="M94.41,38.61h-2v-1.5h2Zm0,6.93h-2v-6h2Z" transform="translate(-1.93 -1.4)"/><path class="cls-6" d="M108.64,45.54h-1.93V41.87a4.92,4.92,0,0,0,0-.64l0-.24a1.33,1.33,0,0,0-.11-.26.67.67,0,0,0-.25-.22.89.89,0,0,0-.43-.09,1.27,1.27,0,0,0-.47.09.73.73,0,0,0-.42.38,1.61,1.61,0,0,0-.1.57h0v4.07h-1.94v-6h1.94v.69a3.63,3.63,0,0,1,.88-.58,2.6,2.6,0,0,1,1.12-.23,2.31,2.31,0,0,1,.87.15,1.59,1.59,0,0,1,.51.36,1.3,1.3,0,0,1,.31.59,4.14,4.14,0,0,1,.08.77v4.27Z" transform="translate(-1.93 -1.4)"/><path class="cls-6" d="M119.23,40.37v2.87a2.82,2.82,0,0,0,.11.93.55.55,0,0,0,.57.29,1.62,1.62,0,0,0,.49-.08v1h0a5.16,5.16,0,0,1-1.26.18,2.39,2.39,0,0,1-1-.16,1.19,1.19,0,0,1-.55-.45,1.58,1.58,0,0,1-.23-.65,5.44,5.44,0,0,1-.06-.88V40.37h-.76v-.86h.76V38.33l1.94-.38v1.56h1v.86Z" transform="translate(-1.93 -1.4)"/><path class="cls-6" d="M130.91,42c-.43-.14-.78-.27-1-.38a3.54,3.54,0,0,1-.75-.43,2,2,0,0,1-.56-.69,2.26,2.26,0,0,1-.21-1,2.4,2.4,0,0,1,.39-1.43,2.26,2.26,0,0,1,.94-.78,3.76,3.76,0,0,1,1-.3,7.34,7.34,0,0,1,.92-.06,6.54,6.54,0,0,1,1.08.08,2.75,2.75,0,0,1,1,.33,1.91,1.91,0,0,1,.6.56,2.23,2.23,0,0,1,.28.7,3.45,3.45,0,0,1,.08.8l-1.9,0a3.45,3.45,0,0,0-.05-.6.94.94,0,0,0-.26-.45,1.27,1.27,0,0,0-.86-.27,1.29,1.29,0,0,0-.88.28.91.91,0,0,0-.33.72.76.76,0,0,0,.34.69,4,4,0,0,0,1.08.48h0l.63.21c.36.11.67.22.91.32a3.48,3.48,0,0,1,.72.44,2.27,2.27,0,0,1,.57.72,2.54,2.54,0,0,1,.21,1.08,3,3,0,0,1-.25,1.27A2.43,2.43,0,0,1,134,45a2.76,2.76,0,0,1-.83.47,3.93,3.93,0,0,1-.83.19,7.84,7.84,0,0,1-2.1-.07,3.12,3.12,0,0,1-1.19-.45,1.91,1.91,0,0,1-.64-.7,2.21,2.21,0,0,1-.25-.72,6.06,6.06,0,0,1,0-.76l2.07,0a3.37,3.37,0,0,0,.06.68,1.1,1.1,0,0,0,.29.54,1.31,1.31,0,0,0,.42.26,1.55,1.55,0,0,0,.59.11,1.34,1.34,0,0,0,1-.33,1.15,1.15,0,0,0,.34-.87.92.92,0,0,0-.32-.78,4.27,4.27,0,0,0-1.11-.49Z" transform="translate(-1.93 -1.4)"/><path class="cls-6" d="M148.84,45.54h-2V41.79c0-.22,0-.4,0-.54a1.45,1.45,0,0,0-.1-.41.63.63,0,0,0-.25-.31.81.81,0,0,0-.46-.11,1.16,1.16,0,0,0-.45.08.85.85,0,0,0-.43.37,1.72,1.72,0,0,0-.12.56v4.11h-1.94V37.05h1.94V40.2a4.17,4.17,0,0,1,.85-.56,2.45,2.45,0,0,1,1.15-.24,2.33,2.33,0,0,1,.87.16,1.35,1.35,0,0,1,.5.35,1.18,1.18,0,0,1,.27.47,1.81,1.81,0,0,1,.11.49,4.67,4.67,0,0,1,0,.57h0Z" transform="translate(-1.93 -1.4)"/><path class="cls-6" d="M163.29,43a5,5,0,0,1-.08.6,4,4,0,0,1-.21.64,1.93,1.93,0,0,1-.38.59,2.12,2.12,0,0,1-.6.48,2.74,2.74,0,0,1-.69.25,4,4,0,0,1-.61.1l-.51,0a4.88,4.88,0,0,1-1.33-.16,2.29,2.29,0,0,1-.88-.45,1.82,1.82,0,0,1-.54-.67,2.84,2.84,0,0,1-.26-.81,5.34,5.34,0,0,1-.08-.92c0-.23,0-.45,0-.64a6.52,6.52,0,0,1,.1-.65,2.77,2.77,0,0,1,.26-.71,2.39,2.39,0,0,1,.49-.61,2.17,2.17,0,0,1,.6-.4,3.68,3.68,0,0,1,.67-.21,5,5,0,0,1,.6-.08,4.26,4.26,0,0,1,.5,0,4.92,4.92,0,0,1,1.08.11,3.16,3.16,0,0,1,.68.26,2.08,2.08,0,0,1,.59.48,2.44,2.44,0,0,1,.33.54,3.09,3.09,0,0,1,.18.59c0,.19.06.38.07.54s0,.35,0,.55S163.29,42.84,163.29,43Zm-2-1.4c0-.14,0-.27,0-.41a1.39,1.39,0,0,0-.14-.42.83.83,0,0,0-.31-.36.91.91,0,0,0-.54-.15,1.06,1.06,0,0,0-.5.12.94.94,0,0,0-.44.51,3.08,3.08,0,0,0-.16.71,8.52,8.52,0,0,0-.05,1c0,.27,0,.54,0,.82a3.18,3.18,0,0,0,.06.43,2,2,0,0,0,.14.43,1,1,0,0,0,.32.37,1,1,0,0,0,.56.15,1,1,0,0,0,.45-.1.93.93,0,0,0,.45-.51,3.62,3.62,0,0,0,.17-.75v0c0-.3,0-.63,0-1S161.31,41.88,161.29,41.62Z" transform="translate(-1.93 -1.4)"/><path class="cls-6" d="M171.58,39.52h1.94v.74h0l.27-.3a1.41,1.41,0,0,1,.35-.23,2.49,2.49,0,0,1,1.24-.32,3.44,3.44,0,0,1,.43,0,3,3,0,0,1,.47.13,2,2,0,0,1,.46.28,1.66,1.66,0,0,1,.39.47,2.58,2.58,0,0,1,.29.82,8,8,0,0,1,.1,1.36,7,7,0,0,1-.06,1,3.43,3.43,0,0,1-.19.81,2,2,0,0,1-.4.68,1.75,1.75,0,0,1-.66.5,2.25,2.25,0,0,1-.54.17,3.49,3.49,0,0,1-.53,0,2,2,0,0,1-1-.21,2.1,2.1,0,0,1-.61-.54V48h-1.94Zm1.93,3.93a1.42,1.42,0,0,0,.26.86.83.83,0,0,0,.7.34.92.92,0,0,0,.44-.1.72.72,0,0,0,.25-.18.89.89,0,0,0,.21-.32,2.14,2.14,0,0,0,.14-.58,6,6,0,0,0,.06-.92c0-.17,0-.38,0-.62a3.35,3.35,0,0,0-.08-.62,2,2,0,0,0-.06-.26,1.1,1.1,0,0,0-.15-.28.85.85,0,0,0-.28-.25.82.82,0,0,0-.44-.1,1,1,0,0,0-.48.12.88.88,0,0,0-.35.31,1.28,1.28,0,0,0-.15.43c0,.16,0,.36-.05.6Z" transform="translate(-1.93 -1.4)"/></svg>