<svg id="Layer_1" data-name="Layer 1" xmlns="http://www.w3.org/2000/svg" viewBox="0 0 177.154 46.62"><defs><style>.cls-1{fill:#eae61d;}.cls-2{fill:#de0d7d;}.cls-3{fill:none;}.cls-4{fill:#269ad6;}.cls-5{fill:#231f20;}.cls-6{fill:#1c2539;}</style></defs><path class="cls-1" d="M25.751,41.174H5.719V19.5A10.016,10.016,0,0,1,15.735,9.479h0A10.016,10.016,0,0,1,25.751,19.5Z" transform="translate(-1.929 -1.399)"/><path class="cls-2" d="M44.34,5.765h0A11.219,11.219,0,0,0,33.121,16.984V34.218H55.559V16.984A11.219,11.219,0,0,0,44.34,5.765Z" transform="translate(-1.929 -1.399)"/><polygon class="cls-3" points="16.988 18.986 16.988 18.993 16.989 18.994 16.988 18.986"/><path class="cls-4" d="M59.522,39.017V16.61a15.213,15.213,0,0,0-30.406-.781A13.71,13.71,0,0,0,15.776,5.265h-.144a13.7,13.7,0,0,0-13.7,13.7V45.54H59.436V42.926H4.142V19.337A11.211,11.211,0,0,1,15.349,8.13h.7A11.208,11.208,0,0,1,27.261,19.337v19.68ZM31.623,17.07a12.685,12.685,0,0,1,25.37,0V36.227H31.623Z" transform="translate(-1.929 -1.399)"/><path class="cls-5" d="M18.918,20.394v0a1.151,1.151,0,0,0-.006.2A.6.6,0,0,0,18.918,20.394Z" transform="translate(-1.929 -1.399)"/><path class="cls-6" d="M74.847,3.977a28.313,28.313,0,0,1,4.068.229,5.6,5.6,0,0,1,2.508.978,5.279,5.279,0,0,1,1.9,2.539,9.834,9.834,0,0,1,.542,3.287q0,4.329-3.085,6.118l-.271.125q-.339.166-.542.249a1.774,1.774,0,0,0,.339.084,4.964,4.964,0,0,1,.711.166,6.346,6.346,0,0,1,.95.395,5.055,5.055,0,0,1,1.389,1.1,6.654,6.654,0,0,1,1.289,2.227,9.874,9.874,0,0,1,.542,3.474,11.083,11.083,0,0,1-.61,3.829A7.122,7.122,0,0,1,83,31.319a5.811,5.811,0,0,1-2.119,1.373,9.891,9.891,0,0,1-2.339.541,26.247,26.247,0,0,1-2.712.125h-10V3.977ZM71.83,16.171h1.831a11.289,11.289,0,0,0,1.847-.125,2.614,2.614,0,0,0,1.271-.583,3.822,3.822,0,0,0,.848-1.165,5.288,5.288,0,0,0,.44-2.414,6.235,6.235,0,0,0-.339-2.164,2.582,2.582,0,0,0-1.491-1.6,9.885,9.885,0,0,0-2.882-.312H71.83Zm0,3.662v9.7l1.356.042q1.221,0,1.78-.021a5.807,5.807,0,0,0,1.1-.146A3.355,3.355,0,0,0,78.033,28.2a4.058,4.058,0,0,0,.729-1.478,7.889,7.889,0,0,0,.254-2.143q0-.416-.034-.874a5.827,5.827,0,0,0-.2-1.082,4.372,4.372,0,0,0-.542-1.207,3.039,3.039,0,0,0-.983-.957,3.491,3.491,0,0,0-1.475-.52,19.542,19.542,0,0,0-2.288-.1Z" transform="translate(-1.929 -1.399)"/><path class="cls-6" d="M98.067,18.834a6.749,6.749,0,0,0-.339-2.538,1.8,1.8,0,0,0-.932-.958,3.079,3.079,0,0,0-1.068-.208,2.35,2.35,0,0,0-2.1,1.124,3.358,3.358,0,0,0-.457,1.207A11.14,11.14,0,0,0,93.016,19v.084H87.762a15.677,15.677,0,0,1,.1-1.956,5.355,5.355,0,0,1,.44-1.54,4.972,4.972,0,0,1,1.3-1.748,6.319,6.319,0,0,1,1.882-1.1,10.549,10.549,0,0,1,2.186-.561,16.474,16.474,0,0,1,2.39-.167,15.738,15.738,0,0,1,3.085.291,7.323,7.323,0,0,1,1.627.5,3.937,3.937,0,0,1,1.288.915A4.554,4.554,0,0,1,103.27,16a16.64,16.64,0,0,1,.254,3.163v9.988q0,1.041.018,1.581a6.966,6.966,0,0,0,.118,1.082,2.95,2.95,0,0,0,.237.832,2.067,2.067,0,0,0,.339.458v.25H99.728a1.94,1.94,0,0,1-1.475-.437,3.177,3.177,0,0,1-.39-1.935,8.846,8.846,0,0,1-.779.915A6.961,6.961,0,0,1,96,32.775a7.083,7.083,0,0,1-1.627.791,6.427,6.427,0,0,1-2.136.333,5.464,5.464,0,0,1-2.118-.416,3.722,3.722,0,0,1-1.644-1.332,5.953,5.953,0,0,1-.865-1.893,9.6,9.6,0,0,1-.322-2.6q0-.5.051-1.041a7.029,7.029,0,0,1,.254-1.248,6.361,6.361,0,0,1,.628-1.436,4.838,4.838,0,0,1,1.135-1.311,6.165,6.165,0,0,1,2.2-1.082,29.06,29.06,0,0,1,3.83-.707l2.678-.333Zm0,4.37H98q-1.322.124-1.78.208c-.3.056-.6.125-.9.208a3.713,3.713,0,0,0-1.813,1.144,3.518,3.518,0,0,0-.695,2.352,6.5,6.5,0,0,0,.135,1.373,2.636,2.636,0,0,0,.831,1.436,2.111,2.111,0,0,0,1.339.437,3.566,3.566,0,0,0,1.05-.167,2.369,2.369,0,0,0,1.018-.666,2.851,2.851,0,0,0,.728-1.435,10.063,10.063,0,0,0,.153-1.852Z" transform="translate(-1.929 -1.399)"/><path class="cls-6" d="M123.05,25.909v.125a16.816,16.816,0,0,1-.153,1.706,8.5,8.5,0,0,1-.458,1.748,6.461,6.461,0,0,1-1.356,2.164A6.343,6.343,0,0,1,119.219,33a8.775,8.775,0,0,1-2.135.687,12.564,12.564,0,0,1-2.305.208,10.975,10.975,0,0,1-3.2-.479,6.344,6.344,0,0,1-2.9-1.976,8.589,8.589,0,0,1-1.22-2,9.818,9.818,0,0,1-.678-2.185,16.082,16.082,0,0,1-.255-2.039q-.051-.936-.051-2.185,0-.957.051-1.852a17.454,17.454,0,0,1,.255-2.039,12.05,12.05,0,0,1,.66-2.309,7.92,7.92,0,0,1,1.238-2.123,6.721,6.721,0,0,1,1.644-1.477,7.432,7.432,0,0,1,1.8-.833,8.075,8.075,0,0,1,1.628-.332c.485-.042.966-.063,1.44-.063a10.137,10.137,0,0,1,3.475.5,6.117,6.117,0,0,1,2.152,1.29,5.677,5.677,0,0,1,1.2,1.5,7.444,7.444,0,0,1,.678,1.664,9.889,9.889,0,0,1,.288,1.54q.067.708.068,1.415V20h-5.356a9.39,9.39,0,0,0-.661-3.516,2.013,2.013,0,0,0-1.949-1.311q-1.628,0-2.339,2a18.782,18.782,0,0,0-.712,5.952q0,.666.034,1.477t.118,1.727a15.259,15.259,0,0,0,.271,1.789,4.454,4.454,0,0,0,.492,1.374,2.732,2.732,0,0,0,.8.894,1.945,1.945,0,0,0,1.169.354,2.217,2.217,0,0,0,2.034-1.332,4.182,4.182,0,0,0,.475-1.29,11.3,11.3,0,0,0,.237-2.205Z" transform="translate(-1.929 -1.399)"/><path class="cls-6" d="M135.49,18.834a6.749,6.749,0,0,0-.339-2.538,1.8,1.8,0,0,0-.932-.958,3.079,3.079,0,0,0-1.068-.208,2.35,2.35,0,0,0-2.1,1.124,3.358,3.358,0,0,0-.457,1.207A11.14,11.14,0,0,0,130.439,19v.084h-5.254a15.677,15.677,0,0,1,.1-1.956,5.355,5.355,0,0,1,.44-1.54,4.972,4.972,0,0,1,1.3-1.748,6.319,6.319,0,0,1,1.882-1.1,10.549,10.549,0,0,1,2.186-.561,16.474,16.474,0,0,1,2.39-.167,15.721,15.721,0,0,1,3.084.291,7.316,7.316,0,0,1,1.628.5,3.947,3.947,0,0,1,1.288.915,4.554,4.554,0,0,1,1.2,2.289,16.64,16.64,0,0,1,.254,3.163v9.988q0,1.041.018,1.581a6.966,6.966,0,0,0,.118,1.082,2.95,2.95,0,0,0,.237.832,2.036,2.036,0,0,0,.339.458v.25h-4.508a1.938,1.938,0,0,1-1.475-.437,3.177,3.177,0,0,1-.39-1.935,8.846,8.846,0,0,1-.779.915,6.961,6.961,0,0,1-1.085.874,7.083,7.083,0,0,1-1.627.791,6.427,6.427,0,0,1-2.136.333,5.464,5.464,0,0,1-2.118-.416,3.722,3.722,0,0,1-1.644-1.332,5.953,5.953,0,0,1-.865-1.893,9.6,9.6,0,0,1-.322-2.6q0-.5.051-1.041a7.029,7.029,0,0,1,.254-1.248,6.361,6.361,0,0,1,.628-1.436,4.838,4.838,0,0,1,1.135-1.311,6.168,6.168,0,0,1,2.2-1.082,29.114,29.114,0,0,1,3.831-.707l2.678-.333Zm0,4.37h-.068q-1.321.124-1.78.208c-.305.056-.6.125-.9.208a3.713,3.713,0,0,0-1.813,1.144,3.518,3.518,0,0,0-.7,2.352,6.5,6.5,0,0,0,.135,1.373,2.636,2.636,0,0,0,.831,1.436,2.111,2.111,0,0,0,1.339.437,3.566,3.566,0,0,0,1.05-.167,2.369,2.369,0,0,0,1.018-.666,2.859,2.859,0,0,0,.728-1.435,10.063,10.063,0,0,0,.153-1.852Z" transform="translate(-1.929 -1.399)"/><path class="cls-6" d="M160.473,25.909v.125a16.816,16.816,0,0,1-.153,1.706,8.563,8.563,0,0,1-.458,1.748,6.477,6.477,0,0,1-1.356,2.164A6.343,6.343,0,0,1,156.642,33a8.775,8.775,0,0,1-2.135.687,12.564,12.564,0,0,1-2.305.208,10.975,10.975,0,0,1-3.2-.479,6.344,6.344,0,0,1-2.9-1.976,8.589,8.589,0,0,1-1.22-2,9.874,9.874,0,0,1-.679-2.185,16.253,16.253,0,0,1-.254-2.039q-.051-.936-.051-2.185,0-.957.051-1.852a17.651,17.651,0,0,1,.254-2.039,12.127,12.127,0,0,1,.661-2.309,7.92,7.92,0,0,1,1.238-2.123,6.721,6.721,0,0,1,1.644-1.477,7.432,7.432,0,0,1,1.8-.833,8.075,8.075,0,0,1,1.628-.332c.485-.042.966-.063,1.44-.063a10.137,10.137,0,0,1,3.475.5,6.117,6.117,0,0,1,2.152,1.29,5.677,5.677,0,0,1,1.2,1.5,7.444,7.444,0,0,1,.678,1.664,9.889,9.889,0,0,1,.288,1.54q.067.708.068,1.415V20h-5.356a9.39,9.39,0,0,0-.661-3.516,2.013,2.013,0,0,0-1.949-1.311q-1.627,0-2.339,2a18.782,18.782,0,0,0-.712,5.952q0,.666.034,1.477t.118,1.727a15.259,15.259,0,0,0,.271,1.789,4.454,4.454,0,0,0,.492,1.374,2.732,2.732,0,0,0,.8.894,1.945,1.945,0,0,0,1.169.354,2.217,2.217,0,0,0,2.034-1.332,4.182,4.182,0,0,0,.475-1.29,11.3,11.3,0,0,0,.237-2.205Z" transform="translate(-1.929 -1.399)"/><path class="cls-6" d="M172.913,18.834a6.729,6.729,0,0,0-.339-2.538,1.8,1.8,0,0,0-.932-.958,3.079,3.079,0,0,0-1.068-.208,2.35,2.35,0,0,0-2.1,1.124,3.358,3.358,0,0,0-.457,1.207A11.3,11.3,0,0,0,167.862,19v.084h-5.254a15.677,15.677,0,0,1,.1-1.956,5.357,5.357,0,0,1,.441-1.54,4.972,4.972,0,0,1,1.3-1.748,6.3,6.3,0,0,1,1.881-1.1,10.549,10.549,0,0,1,2.186-.561,16.474,16.474,0,0,1,2.39-.167A15.738,15.738,0,0,1,174,12.3a7.307,7.307,0,0,1,1.627.5,3.937,3.937,0,0,1,1.288.915,4.546,4.546,0,0,1,1.2,2.289,16.631,16.631,0,0,1,.255,3.163v9.988q0,1.041.017,1.581a7.09,7.09,0,0,0,.118,1.082,2.911,2.911,0,0,0,.238.832,2.031,2.031,0,0,0,.338.458v.25h-4.508a1.94,1.94,0,0,1-1.475-.437,3.179,3.179,0,0,1-.389-1.935,8.977,8.977,0,0,1-.78.915,6.961,6.961,0,0,1-1.085.874,7.063,7.063,0,0,1-1.627.791,6.425,6.425,0,0,1-2.135.333,5.465,5.465,0,0,1-2.119-.416,3.722,3.722,0,0,1-1.644-1.332,5.931,5.931,0,0,1-.864-1.893,9.563,9.563,0,0,1-.322-2.6c0-.333.016-.68.05-1.041a6.951,6.951,0,0,1,.255-1.248,6.311,6.311,0,0,1,.627-1.436,4.855,4.855,0,0,1,1.135-1.311,6.173,6.173,0,0,1,2.2-1.082,29.06,29.06,0,0,1,3.83-.707l2.678-.333Zm0,4.37h-.068q-1.321.124-1.779.208c-.306.056-.6.125-.9.208a3.717,3.717,0,0,0-1.813,1.144,3.518,3.518,0,0,0-.7,2.352,6.435,6.435,0,0,0,.136,1.373,2.629,2.629,0,0,0,.83,1.436,2.111,2.111,0,0,0,1.339.437,3.578,3.578,0,0,0,1.051-.167,2.372,2.372,0,0,0,1.017-.666,2.861,2.861,0,0,0,.729-1.435,10.157,10.157,0,0,0,.152-1.852Z" transform="translate(-1.929 -1.399)"/><path class="cls-6" d="M68.544,42.46v3.08h-2.19V37.047h3.477q.529,0,.782.012a4.449,4.449,0,0,1,.481.048,2.6,2.6,0,0,1,.74.241,1.875,1.875,0,0,1,.583.463,2.049,2.049,0,0,1,.392.763,3.95,3.95,0,0,1,.138,1.108,4.044,4.044,0,0,1-.193,1.287,2.021,2.021,0,0,1-.649.95,2.139,2.139,0,0,1-1.011.445,8.46,8.46,0,0,1-1.383.1Zm0-1.131h.722a3.256,3.256,0,0,0,.613-.048,1.069,1.069,0,0,0,.457-.2,1.031,1.031,0,0,0,.325-.487,2.62,2.62,0,0,0,.12-.873,2.291,2.291,0,0,0-.132-.859,1.011,1.011,0,0,0-.343-.464,1.063,1.063,0,0,0-.457-.18,4.1,4.1,0,0,0-.583-.036h-.722Z" transform="translate(-1.929 -1.399)"/><path class="cls-6" d="M82.656,45.54H80.707V39.525h1.949V40.6a3.347,3.347,0,0,1,.192-.392,1.773,1.773,0,0,1,.265-.33,1.486,1.486,0,0,1,1.047-.445,1.138,1.138,0,0,1,.252.023,1.893,1.893,0,0,1,.241.085h.012v1.588a3.116,3.116,0,0,0-.427-.2,1.3,1.3,0,0,0-.463-.079,1.517,1.517,0,0,0-.235.024,1.2,1.2,0,0,0-.294.1.925.925,0,0,0-.482.487,2.011,2.011,0,0,0-.108.692Z" transform="translate(-1.929 -1.399)"/><path class="cls-6" d="M94.41,38.611H92.448v-1.5H94.41ZM94.4,45.54H92.448V39.525H94.4Z" transform="translate(-1.929 -1.399)"/><path class="cls-6" d="M108.643,45.54h-1.938V41.871c0-.289-.008-.5-.023-.637a2.358,2.358,0,0,0-.036-.247.847.847,0,0,0-.109-.253.669.669,0,0,0-.247-.229.874.874,0,0,0-.427-.09,1.124,1.124,0,0,0-.468.1.724.724,0,0,0-.428.379,1.773,1.773,0,0,0-.1.571V45.54h-1.937V39.525h1.937v.686a3.743,3.743,0,0,1,.884-.584,2.631,2.631,0,0,1,1.125-.223,2.139,2.139,0,0,1,.866.151,1.353,1.353,0,0,1,.505.355,1.279,1.279,0,0,1,.314.589,4.213,4.213,0,0,1,.084.771v4.27Z" transform="translate(-1.929 -1.399)"/><path class="cls-6" d="M119.229,40.367v2.875a2.72,2.72,0,0,0,.114.933q.114.282.571.282a1.643,1.643,0,0,0,.482-.072v1.047l-.037.012a5.04,5.04,0,0,1-1.262.18,2.425,2.425,0,0,1-.969-.162,1.193,1.193,0,0,1-.548-.451,1.682,1.682,0,0,1-.234-.649,6.082,6.082,0,0,1-.054-.879V40.367h-.758v-.854h.758V38.334l1.937-.385v1.564h1.01v.854Z" transform="translate(-1.929 -1.399)"/><path class="cls-6" d="M130.91,41.955q-.648-.2-1.046-.373a3.628,3.628,0,0,1-.752-.433,1.885,1.885,0,0,1-.565-.686,2.255,2.255,0,0,1-.211-1.022,2.39,2.39,0,0,1,.391-1.432,2.3,2.3,0,0,1,.944-.782,3.847,3.847,0,0,1,1.035-.3,7.473,7.473,0,0,1,.926-.06,7.183,7.183,0,0,1,1.083.084,2.725,2.725,0,0,1,.974.331,1.821,1.821,0,0,1,.6.56,2.044,2.044,0,0,1,.288.7,3.876,3.876,0,0,1,.079.807l-1.9-.025a2.91,2.91,0,0,0-.054-.6.853.853,0,0,0-.259-.445,1.241,1.241,0,0,0-.854-.277,1.315,1.315,0,0,0-.884.282.9.9,0,0,0-.331.716.786.786,0,0,0,.337.7,4.8,4.8,0,0,0,1.083.481h.012l.626.2a8.886,8.886,0,0,1,.914.325,3.208,3.208,0,0,1,.716.439,2.1,2.1,0,0,1,.571.721,2.431,2.431,0,0,1,.217,1.078,2.965,2.965,0,0,1-.253,1.263,2.3,2.3,0,0,1-.626.818,2.694,2.694,0,0,1-.823.464,3.925,3.925,0,0,1-.837.192,7.836,7.836,0,0,1-.794.042,6.881,6.881,0,0,1-1.3-.109,3.088,3.088,0,0,1-1.192-.457,2.012,2.012,0,0,1-.643-.692,2.211,2.211,0,0,1-.246-.727,5.582,5.582,0,0,1-.049-.758l2.069.024a3.426,3.426,0,0,0,.061.68,1.085,1.085,0,0,0,.288.535,1.3,1.3,0,0,0,.415.265,1.538,1.538,0,0,0,.6.108,1.334,1.334,0,0,0,.968-.331,1.157,1.157,0,0,0,.343-.872.89.89,0,0,0-.325-.776,4.231,4.231,0,0,0-1.106-.488Z" transform="translate(-1.929 -1.399)"/><path class="cls-6" d="M148.836,45.54h-1.949V41.786c0-.216-.006-.394-.018-.535a1.5,1.5,0,0,0-.1-.409.648.648,0,0,0-.252-.313.838.838,0,0,0-.463-.114,1.247,1.247,0,0,0-.446.084.792.792,0,0,0-.426.373,1.615,1.615,0,0,0-.126.554V45.54h-1.938V37.047h1.938V40.2a4.438,4.438,0,0,1,.847-.559,2.538,2.538,0,0,1,1.15-.235,2.265,2.265,0,0,1,.878.157,1.341,1.341,0,0,1,.5.349,1.39,1.39,0,0,1,.27.469,2.237,2.237,0,0,1,.109.493c.016.161.024.349.024.566v4.1Z" transform="translate(-1.929 -1.399)"/><path class="cls-6" d="M163.285,43.02a3.994,3.994,0,0,1-.078.595,3.462,3.462,0,0,1-.2.65,2.094,2.094,0,0,1-.379.59,2.044,2.044,0,0,1-.607.474,2.932,2.932,0,0,1-.686.253,4.162,4.162,0,0,1-.607.1c-.177.012-.35.017-.518.017a4.644,4.644,0,0,1-1.323-.156A2.5,2.5,0,0,1,158,45.1a1.968,1.968,0,0,1-.541-.674,3,3,0,0,1-.259-.811,5.56,5.56,0,0,1-.072-.921c0-.233.006-.445.019-.638a4.4,4.4,0,0,1,.095-.649,2.774,2.774,0,0,1,.265-.71,2.188,2.188,0,0,1,.487-.614,2.016,2.016,0,0,1,.6-.4,3.3,3.3,0,0,1,.668-.211,4.7,4.7,0,0,1,.595-.084c.176-.013.345-.019.5-.019s.324.006.488.019a4.042,4.042,0,0,1,.589.1,2.709,2.709,0,0,1,.68.258,2.017,2.017,0,0,1,.589.482,2.073,2.073,0,0,1,.331.535,2.774,2.774,0,0,1,.181.59,4.312,4.312,0,0,1,.066.547c.008.169.012.349.012.542C163.3,42.645,163.293,42.839,163.285,43.02Zm-2-1.4a3.59,3.59,0,0,0-.049-.409,1.678,1.678,0,0,0-.137-.421.912.912,0,0,0-.314-.361.925.925,0,0,0-.535-.145,1.056,1.056,0,0,0-.5.122.96.96,0,0,0-.439.51,3.318,3.318,0,0,0-.163.7c-.032.353-.047.678-.047.975,0,.265.011.537.035.817a3.209,3.209,0,0,0,.054.428,2.022,2.022,0,0,0,.145.433.909.909,0,0,0,.318.373.953.953,0,0,0,.554.15,1.01,1.01,0,0,0,.457-.108.936.936,0,0,0,.445-.505,3.154,3.154,0,0,0,.168-.746V43.41a9.089,9.089,0,0,0,.049-1Q161.324,42.016,161.288,41.618Z" transform="translate(-1.929 -1.399)"/><path class="cls-6" d="M171.585,39.525h1.937v.734l.012-.012a3.184,3.184,0,0,1,.271-.3,1.409,1.409,0,0,1,.342-.229,2.527,2.527,0,0,1,1.24-.313,2.793,2.793,0,0,1,.433.037,2.167,2.167,0,0,1,.469.132,1.8,1.8,0,0,1,.463.277,1.7,1.7,0,0,1,.392.469,2.613,2.613,0,0,1,.282.818,7.29,7.29,0,0,1,.1,1.359,7.908,7.908,0,0,1-.053.95,3.7,3.7,0,0,1-.194.813,2.259,2.259,0,0,1-.4.686,1.937,1.937,0,0,1-.668.5,2.2,2.2,0,0,1-.541.168,3.016,3.016,0,0,1-.53.048,2.012,2.012,0,0,1-1.016-.21,2.137,2.137,0,0,1-.608-.536v3.1h-1.937Zm1.925,3.921a1.386,1.386,0,0,0,.259.861.836.836,0,0,0,.7.343.953.953,0,0,0,.432-.1,1.056,1.056,0,0,0,.259-.181.95.95,0,0,0,.205-.318,2.379,2.379,0,0,0,.144-.584,6.629,6.629,0,0,0,.054-.926c0-.169,0-.373-.018-.614a3.691,3.691,0,0,0-.078-.625,1.854,1.854,0,0,0-.066-.259,1.191,1.191,0,0,0-.144-.277.825.825,0,0,0-.716-.355,1.007,1.007,0,0,0-.487.12.891.891,0,0,0-.343.313,1.239,1.239,0,0,0-.151.428,4.611,4.611,0,0,0-.054.607Z" transform="translate(-1.929 -1.399)"/></svg>