<?xml version="1.0" encoding="utf-8"?>
<!-- Generator: Adobe Illustrator 25.0.1, SVG Export Plug-In . SVG Version: 6.00 Build 0)  -->
<svg version="1.1" id="Layer_1" xmlns="http://www.w3.org/2000/svg" xmlns:xlink="http://www.w3.org/1999/xlink" x="0px" y="0px"
	 viewBox="0 0 181 50" style="enable-background:new 0 0 181 50;" xml:space="preserve">
<style type="text/css">
	.st0{fill:#EAE61D;}
	.st1{fill:#DE0D7D;}
	.st2{fill:none;}
	.st3{fill:#269AD6;}
	.st4{fill:#231F20;}
	.st5{fill:#1C2539;}
</style>
<g>
	<path class="st0" d="M25.8,41.2h-20V19.5c0-5.5,4.5-10,10-10h0c5.5,0,10,4.5,10,10V41.2z"/>
</g>
<g>
	<path class="st1" d="M44.3,5.8L44.3,5.8c-6.2,0-11.2,5-11.2,11.2v17.2h22.4V17C55.6,10.8,50.5,5.8,44.3,5.8z"/>
</g>
<polygon class="st2" points="18.9,20.4 18.9,20.4 18.9,20.4 "/>
<g>
	<g>
		<path class="st3" d="M59.5,39V16.6c0-4.2-1.7-8-4.5-10.8c-2.7-2.8-6.6-4.5-10.8-4.5c-8.1,0-14.8,6.4-15.2,14.4
			C27.7,9.8,22.3,5.3,15.8,5.3h-0.1C8.1,5.3,1.9,11.4,1.9,19v26.6h57.5v-2.6H4.1V19.3c0-6.2,5-11.2,11.2-11.2h0.7
			c6.2,0,11.2,5,11.2,11.2V39L59.5,39z M31.6,17.1c0-7,5.7-12.7,12.7-12.7c3.5,0,6.7,1.4,9,3.7c2.3,2.3,3.7,5.5,3.7,9v19.2H31.6
			V17.1z"/>
	</g>
</g>
<g>
	<path class="st4" d="M18.9,20.4C18.9,20.4,18.9,20.4,18.9,20.4c0,0.1,0,0.1,0,0.2C18.9,20.6,18.9,20.5,18.9,20.4z"/>
</g>
<path class="st5" d="M74.8,4c1.7,0,3.1,0.1,4.1,0.2c1,0.2,1.8,0.5,2.5,1c0.9,0.7,1.5,1.5,1.9,2.5c0.4,1,0.5,2.1,0.5,3.3
	c0,2.9-1,4.9-3.1,6.1l-0.3,0.1c-0.2,0.1-0.4,0.2-0.5,0.2c0.1,0,0.2,0.1,0.3,0.1c0.3,0.1,0.6,0.1,0.7,0.2c0.2,0.1,0.5,0.2,0.9,0.4
	c0.4,0.2,0.9,0.6,1.4,1.1c0.5,0.5,0.9,1.3,1.3,2.2c0.4,1,0.5,2.1,0.5,3.5c0,1.4-0.2,2.7-0.6,3.8c-0.4,1.1-0.9,1.9-1.6,2.5
	c-0.6,0.6-1.4,1.1-2.1,1.4c-0.8,0.3-1.5,0.5-2.3,0.5c-0.8,0.1-1.7,0.1-2.7,0.1h0h-10V4H74.8z M71.8,16.2h1.8c0.7,0,1.4,0,1.8-0.1
	c0.5-0.1,0.9-0.3,1.3-0.6c0.3-0.2,0.6-0.6,0.8-1.2c0.3-0.6,0.4-1.4,0.4-2.4c0-0.8-0.1-1.6-0.3-2.2c-0.4-0.9-0.9-1.4-1.5-1.6
	c-0.6-0.2-1.6-0.3-2.9-0.3h-1.5V16.2z M71.8,19.8v9.7l1.4,0c0.8,0,1.4,0,1.8,0c0.4,0,0.7-0.1,1.1-0.1c0.8-0.2,1.5-0.6,2-1.2
	c0.3-0.4,0.6-0.9,0.7-1.5c0.2-0.6,0.3-1.3,0.3-2.1c0-0.3,0-0.6,0-0.9c0-0.3-0.1-0.7-0.2-1.1c-0.1-0.4-0.3-0.8-0.5-1.2
	c-0.2-0.4-0.6-0.7-1-1c-0.4-0.3-0.9-0.5-1.5-0.5c-0.6-0.1-1.3-0.1-2.3-0.1H71.8z"/>
<path class="st5" d="M98.1,18.8c0-1.2-0.1-2-0.3-2.5c-0.2-0.5-0.6-0.8-0.9-1c-0.4-0.1-0.7-0.2-1.1-0.2c-0.5,0-1,0.1-1.3,0.3
	c-0.4,0.2-0.6,0.5-0.8,0.8c-0.2,0.4-0.4,0.8-0.5,1.2c-0.1,0.4-0.1,1-0.2,1.5v0.1h-5.3c0-0.8,0-1.4,0.1-2c0.1-0.5,0.2-1,0.4-1.5
	c0.3-0.7,0.8-1.3,1.3-1.7c0.6-0.5,1.2-0.8,1.9-1.1c0.7-0.3,1.4-0.5,2.2-0.6c0.8-0.1,1.6-0.2,2.4-0.2c1.1,0,2.1,0.1,3.1,0.3
	c0.6,0.1,1.1,0.3,1.6,0.5c0.5,0.2,0.9,0.5,1.3,0.9c0.6,0.7,1,1.4,1.2,2.3c0.2,0.9,0.3,1.9,0.3,3.2v10c0,0.7,0,1.2,0,1.6
	c0,0.4,0.1,0.7,0.1,1.1c0.1,0.4,0.1,0.7,0.2,0.8c0.1,0.2,0.2,0.3,0.3,0.5v0.2h-4.5c-0.7,0-1.2-0.1-1.5-0.4C98,32.6,97.9,32,97.9,31
	c-0.2,0.3-0.5,0.6-0.8,0.9c-0.3,0.3-0.6,0.6-1.1,0.9c-0.5,0.3-1,0.6-1.6,0.8c-0.6,0.2-1.3,0.3-2.1,0.3c-0.7,0-1.5-0.1-2.1-0.4
	c-0.7-0.3-1.2-0.7-1.6-1.3c-0.4-0.5-0.6-1.1-0.9-1.9c-0.2-0.8-0.3-1.6-0.3-2.6c0-0.3,0-0.7,0.1-1c0-0.4,0.1-0.8,0.3-1.2
	c0.1-0.5,0.3-0.9,0.6-1.4c0.3-0.5,0.7-0.9,1.1-1.3c0.6-0.5,1.3-0.8,2.2-1.1c0.9-0.2,2.2-0.5,3.8-0.7l2.7-0.3V18.8z M98.1,23.2
	L98.1,23.2c-0.9,0.1-1.5,0.2-1.8,0.2c-0.3,0.1-0.6,0.1-0.9,0.2c-0.7,0.2-1.4,0.6-1.8,1.1c-0.5,0.5-0.7,1.3-0.7,2.4
	c0,0.5,0,1,0.1,1.4c0.2,0.7,0.5,1.1,0.8,1.4c0.4,0.3,0.8,0.4,1.3,0.4c0.3,0,0.7-0.1,1.1-0.2c0.4-0.1,0.7-0.3,1-0.7
	c0.4-0.4,0.6-0.9,0.7-1.4c0.1-0.5,0.2-1.2,0.2-1.9V23.2z"/>
<path class="st5" d="M123,25.9V26c0,0.6-0.1,1.2-0.2,1.7c-0.1,0.6-0.2,1.1-0.5,1.7c-0.3,0.9-0.8,1.6-1.4,2.2c-0.6,0.6-1.2,1-1.9,1.4
	c-0.7,0.3-1.4,0.5-2.1,0.7c-0.7,0.1-1.5,0.2-2.3,0.2c-1.1,0-2.2-0.2-3.2-0.5c-1.1-0.3-2-1-2.9-2c-0.5-0.6-0.9-1.3-1.2-2
	c-0.3-0.7-0.5-1.4-0.7-2.2c-0.1-0.7-0.2-1.4-0.3-2c0-0.6-0.1-1.4-0.1-2.2c0-0.6,0-1.3,0.1-1.9c0-0.6,0.1-1.3,0.3-2
	c0.1-0.8,0.4-1.5,0.7-2.3c0.3-0.8,0.7-1.5,1.2-2.1c0.5-0.6,1-1.1,1.6-1.5c0.6-0.4,1.2-0.7,1.8-0.8c0.6-0.2,1.1-0.3,1.6-0.3
	c0.5,0,1-0.1,1.4-0.1c1.4,0,2.6,0.2,3.5,0.5c0.9,0.3,1.6,0.8,2.2,1.3c0.5,0.4,0.9,0.9,1.2,1.5c0.3,0.6,0.5,1.1,0.7,1.7
	c0.1,0.6,0.2,1.1,0.3,1.5c0,0.5,0.1,0.9,0.1,1.4V20h-5.4c0-1.5-0.3-2.6-0.7-3.5c-0.4-0.9-1-1.3-1.9-1.3c-1.1,0-1.9,0.7-2.3,2
	c-0.5,1.3-0.7,3.3-0.7,6c0,0.4,0,0.9,0,1.5c0,0.5,0.1,1.1,0.1,1.7c0.1,0.6,0.1,1.2,0.3,1.8c0.1,0.6,0.3,1,0.5,1.4
	c0.2,0.4,0.5,0.7,0.8,0.9c0.3,0.2,0.7,0.4,1.2,0.4c0.9,0,1.6-0.4,2-1.3c0.2-0.3,0.3-0.7,0.5-1.3c0.1-0.6,0.2-1.3,0.2-2.2H123z"/>
<path class="st5" d="M135.5,18.8c0-1.2-0.1-2-0.3-2.5c-0.2-0.5-0.6-0.8-0.9-1c-0.4-0.1-0.7-0.2-1.1-0.2c-0.5,0-1,0.1-1.3,0.3
	c-0.4,0.2-0.6,0.5-0.8,0.8c-0.2,0.4-0.4,0.8-0.5,1.2c-0.1,0.4-0.1,1-0.2,1.5v0.1h-5.3c0-0.8,0-1.4,0.1-2c0.1-0.5,0.2-1,0.4-1.5
	c0.3-0.7,0.8-1.3,1.3-1.7c0.6-0.5,1.2-0.8,1.9-1.1c0.7-0.3,1.4-0.5,2.2-0.6c0.8-0.1,1.6-0.2,2.4-0.2c1.1,0,2.1,0.1,3.1,0.3
	c0.6,0.1,1.1,0.3,1.6,0.5c0.5,0.2,0.9,0.5,1.3,0.9c0.6,0.7,1,1.4,1.2,2.3c0.2,0.9,0.3,1.9,0.3,3.2v10c0,0.7,0,1.2,0,1.6
	c0,0.4,0.1,0.7,0.1,1.1c0.1,0.4,0.1,0.7,0.2,0.8c0.1,0.2,0.2,0.3,0.3,0.5v0.2h-4.5c-0.7,0-1.2-0.1-1.5-0.4c-0.3-0.3-0.4-0.9-0.4-1.9
	c-0.2,0.3-0.5,0.6-0.8,0.9c-0.3,0.3-0.6,0.6-1.1,0.9c-0.5,0.3-1,0.6-1.6,0.8c-0.6,0.2-1.3,0.3-2.1,0.3c-0.7,0-1.5-0.1-2.1-0.4
	c-0.7-0.3-1.2-0.7-1.6-1.3c-0.4-0.5-0.6-1.1-0.9-1.9c-0.2-0.8-0.3-1.6-0.3-2.6c0-0.3,0-0.7,0.1-1c0-0.4,0.1-0.8,0.3-1.2
	c0.1-0.5,0.3-0.9,0.6-1.4c0.3-0.5,0.7-0.9,1.1-1.3c0.6-0.5,1.3-0.8,2.2-1.1c0.9-0.2,2.2-0.5,3.8-0.7l2.7-0.3V18.8z M135.5,23.2
	L135.5,23.2c-0.9,0.1-1.5,0.2-1.8,0.2c-0.3,0.1-0.6,0.1-0.9,0.2c-0.7,0.2-1.4,0.6-1.8,1.1c-0.5,0.5-0.7,1.3-0.7,2.4
	c0,0.5,0,1,0.1,1.4c0.2,0.7,0.5,1.1,0.8,1.4c0.4,0.3,0.8,0.4,1.3,0.4c0.3,0,0.7-0.1,1.1-0.2c0.4-0.1,0.7-0.3,1-0.7
	c0.4-0.4,0.6-0.9,0.7-1.4c0.1-0.5,0.2-1.2,0.2-1.9V23.2z"/>
<path class="st5" d="M160.5,25.9V26c0,0.6-0.1,1.2-0.2,1.7c-0.1,0.6-0.2,1.1-0.5,1.7c-0.3,0.9-0.8,1.6-1.4,2.2
	c-0.6,0.6-1.2,1-1.9,1.4c-0.7,0.3-1.4,0.5-2.1,0.7c-0.7,0.1-1.5,0.2-2.3,0.2c-1.1,0-2.2-0.2-3.2-0.5c-1.1-0.3-2-1-2.9-2
	c-0.5-0.6-0.9-1.3-1.2-2c-0.3-0.7-0.5-1.4-0.7-2.2c-0.1-0.7-0.2-1.4-0.3-2c0-0.6-0.1-1.4-0.1-2.2c0-0.6,0-1.3,0.1-1.9
	c0-0.6,0.1-1.3,0.3-2c0.1-0.8,0.4-1.5,0.7-2.3c0.3-0.8,0.7-1.5,1.2-2.1c0.5-0.6,1-1.1,1.6-1.5c0.6-0.4,1.2-0.7,1.8-0.8
	c0.6-0.2,1.1-0.3,1.6-0.3c0.5,0,1-0.1,1.4-0.1c1.4,0,2.6,0.2,3.5,0.5c0.9,0.3,1.6,0.8,2.2,1.3c0.5,0.4,0.9,0.9,1.2,1.5
	c0.3,0.6,0.5,1.1,0.7,1.7c0.1,0.6,0.2,1.1,0.3,1.5c0,0.5,0.1,0.9,0.1,1.4V20h-5.4c0-1.5-0.3-2.6-0.7-3.5c-0.4-0.9-1-1.3-1.9-1.3
	c-1.1,0-1.9,0.7-2.3,2c-0.5,1.3-0.7,3.3-0.7,6c0,0.4,0,0.9,0,1.5c0,0.5,0.1,1.1,0.1,1.7c0.1,0.6,0.1,1.2,0.3,1.8
	c0.1,0.6,0.3,1,0.5,1.4c0.2,0.4,0.5,0.7,0.8,0.9c0.3,0.2,0.7,0.4,1.2,0.4c0.9,0,1.6-0.4,2-1.3c0.2-0.3,0.3-0.7,0.5-1.3
	c0.1-0.6,0.2-1.3,0.2-2.2H160.5z"/>
<path class="st5" d="M172.9,18.8c0-1.2-0.1-2-0.3-2.5c-0.2-0.5-0.6-0.8-0.9-1c-0.4-0.1-0.7-0.2-1.1-0.2c-0.5,0-1,0.1-1.3,0.3
	c-0.4,0.2-0.6,0.5-0.8,0.8c-0.2,0.4-0.4,0.8-0.5,1.2c-0.1,0.4-0.1,1-0.2,1.5v0.1h-5.3c0-0.8,0-1.4,0.1-2c0.1-0.5,0.2-1,0.4-1.5
	c0.3-0.7,0.8-1.3,1.3-1.7c0.6-0.5,1.2-0.8,1.9-1.1c0.7-0.3,1.4-0.5,2.2-0.6c0.8-0.1,1.6-0.2,2.4-0.2c1.1,0,2.1,0.1,3.1,0.3
	c0.6,0.1,1.1,0.3,1.6,0.5c0.5,0.2,0.9,0.5,1.3,0.9c0.6,0.7,1,1.4,1.2,2.3c0.2,0.9,0.3,1.9,0.3,3.2v10c0,0.7,0,1.2,0,1.6
	c0,0.4,0.1,0.7,0.1,1.1c0.1,0.4,0.1,0.7,0.2,0.8c0.1,0.2,0.2,0.3,0.3,0.5v0.2h-4.5c-0.7,0-1.2-0.1-1.5-0.4c-0.3-0.3-0.4-0.9-0.4-1.9
	c-0.2,0.3-0.5,0.6-0.8,0.9c-0.3,0.3-0.6,0.6-1.1,0.9c-0.5,0.3-1,0.6-1.6,0.8c-0.6,0.2-1.3,0.3-2.1,0.3c-0.7,0-1.5-0.1-2.1-0.4
	c-0.7-0.3-1.2-0.7-1.6-1.3c-0.4-0.5-0.6-1.1-0.9-1.9c-0.2-0.8-0.3-1.6-0.3-2.6c0-0.3,0-0.7,0.1-1c0-0.4,0.1-0.8,0.3-1.2
	c0.1-0.5,0.3-0.9,0.6-1.4c0.3-0.5,0.7-0.9,1.1-1.3c0.6-0.5,1.3-0.8,2.2-1.1s2.2-0.5,3.8-0.7l2.7-0.3V18.8z M172.9,23.2L172.9,23.2
	c-0.9,0.1-1.5,0.2-1.8,0.2c-0.3,0.1-0.6,0.1-0.9,0.2c-0.7,0.2-1.4,0.6-1.8,1.1c-0.5,0.5-0.7,1.3-0.7,2.4c0,0.5,0,1,0.1,1.4
	c0.2,0.7,0.5,1.1,0.8,1.4c0.4,0.3,0.8,0.4,1.3,0.4c0.3,0,0.7-0.1,1.1-0.2c0.4-0.1,0.7-0.3,1-0.7c0.4-0.4,0.6-0.9,0.7-1.4
	c0.1-0.5,0.2-1.2,0.2-1.9V23.2z"/>
<path class="st5" d="M68.5,42.5v3.1h-2.2V37h3.5c0.4,0,0.6,0,0.8,0c0.2,0,0.3,0,0.5,0c0.3,0,0.5,0.1,0.7,0.2s0.4,0.3,0.6,0.5
	s0.3,0.5,0.4,0.8s0.1,0.7,0.1,1.1c0,0.5-0.1,0.9-0.2,1.3c-0.1,0.4-0.3,0.7-0.6,1c-0.3,0.2-0.6,0.4-1,0.4s-0.8,0.1-1.4,0.1H68.5z
	 M68.5,41.3h0.7c0.2,0,0.4,0,0.6,0s0.3-0.1,0.5-0.2c0.1-0.1,0.2-0.3,0.3-0.5s0.1-0.5,0.1-0.9c0-0.4,0-0.6-0.1-0.9
	c-0.1-0.2-0.2-0.4-0.3-0.5c-0.1-0.1-0.3-0.2-0.5-0.2c-0.2,0-0.4,0-0.6,0h-0.7V41.3z"/>
<path class="st5" d="M82.7,45.5h-1.9v-6h1.9v1.1c0.1-0.2,0.1-0.3,0.2-0.4c0.1-0.1,0.2-0.2,0.3-0.3c0.3-0.3,0.7-0.4,1-0.4
	c0.1,0,0.2,0,0.3,0c0.1,0,0.1,0,0.2,0.1h0v1.6c-0.1-0.1-0.3-0.1-0.4-0.2c-0.1-0.1-0.3-0.1-0.5-0.1c-0.1,0-0.1,0-0.2,0
	c-0.1,0-0.2,0-0.3,0.1c-0.2,0.1-0.4,0.3-0.5,0.5c-0.1,0.2-0.1,0.4-0.1,0.7V45.5z"/>
<path class="st5" d="M94.4,38.6h-2v-1.5h2V38.6z M94.4,45.5h-1.9v-6h1.9V45.5z"/>
<path class="st5" d="M108.6,45.5h-1.9v-3.7c0-0.3,0-0.5,0-0.6c0-0.1,0-0.2,0-0.2c0-0.1-0.1-0.2-0.1-0.3c-0.1-0.1-0.1-0.2-0.2-0.2
	c-0.1-0.1-0.2-0.1-0.4-0.1c-0.2,0-0.3,0-0.5,0.1c-0.2,0.1-0.4,0.2-0.4,0.4c-0.1,0.2-0.1,0.3-0.1,0.6v0v4.1h-1.9v-6h1.9v0.7
	c0.3-0.2,0.6-0.4,0.9-0.6s0.7-0.2,1.1-0.2c0.4,0,0.6,0.1,0.9,0.2c0.2,0.1,0.4,0.2,0.5,0.4c0.2,0.2,0.3,0.4,0.3,0.6
	c0,0.2,0.1,0.5,0.1,0.8v0V45.5z"/>
<path class="st5" d="M119.2,40.4v2.9c0,0.4,0,0.7,0.1,0.9s0.3,0.3,0.6,0.3c0.2,0,0.3,0,0.5-0.1v1l0,0c-0.5,0.1-0.9,0.2-1.3,0.2
	c-0.4,0-0.7-0.1-1-0.2c-0.2-0.1-0.4-0.3-0.5-0.5c-0.1-0.2-0.2-0.4-0.2-0.6c0-0.2-0.1-0.5-0.1-0.9v-3.1h-0.8v-0.9h0.8v-1.2l1.9-0.4
	v1.6h1v0.9H119.2z"/>
<path class="st5" d="M130.9,42c-0.4-0.1-0.8-0.3-1-0.4c-0.3-0.1-0.5-0.3-0.8-0.4c-0.2-0.2-0.4-0.4-0.6-0.7c-0.1-0.3-0.2-0.6-0.2-1
	c0-0.6,0.1-1.1,0.4-1.4c0.3-0.4,0.6-0.6,0.9-0.8c0.4-0.2,0.7-0.3,1-0.3c0.3,0,0.6-0.1,0.9-0.1c0.4,0,0.7,0,1.1,0.1
	c0.4,0.1,0.7,0.2,1,0.3s0.5,0.3,0.6,0.6c0.1,0.2,0.2,0.4,0.3,0.7c0.1,0.2,0.1,0.5,0.1,0.8l-1.9,0c0-0.2,0-0.4-0.1-0.6
	s-0.1-0.3-0.3-0.4c-0.2-0.2-0.5-0.3-0.9-0.3c-0.4,0-0.7,0.1-0.9,0.3c-0.2,0.2-0.3,0.4-0.3,0.7c0,0.3,0.1,0.5,0.3,0.7
	s0.6,0.3,1.1,0.5h0l0.6,0.2c0.4,0.1,0.7,0.2,0.9,0.3c0.2,0.1,0.5,0.2,0.7,0.4c0.2,0.2,0.4,0.4,0.6,0.7c0.1,0.3,0.2,0.7,0.2,1.1
	c0,0.5-0.1,0.9-0.3,1.3c-0.2,0.3-0.4,0.6-0.6,0.8c-0.3,0.2-0.5,0.4-0.8,0.5c-0.3,0.1-0.6,0.2-0.8,0.2c-0.3,0-0.5,0-0.8,0
	c-0.5,0-0.9,0-1.3-0.1c-0.5-0.1-0.9-0.2-1.2-0.5c-0.3-0.2-0.5-0.4-0.6-0.7c-0.1-0.3-0.2-0.5-0.2-0.7c0-0.2,0-0.5,0-0.8l2.1,0
	c0,0.3,0,0.5,0.1,0.7s0.1,0.4,0.3,0.5c0.1,0.1,0.2,0.2,0.4,0.3c0.2,0.1,0.4,0.1,0.6,0.1c0.4,0,0.7-0.1,1-0.3s0.3-0.5,0.3-0.9
	c0-0.4-0.1-0.6-0.3-0.8c-0.2-0.2-0.6-0.3-1.1-0.5L130.9,42z"/>
<path class="st5" d="M148.8,45.5h-1.9v-3.8c0-0.2,0-0.4,0-0.5c0-0.1,0-0.3-0.1-0.4c-0.1-0.1-0.1-0.2-0.3-0.3s-0.3-0.1-0.5-0.1
	c-0.2,0-0.3,0-0.4,0.1c-0.2,0.1-0.4,0.2-0.4,0.4s-0.1,0.3-0.1,0.6v0v4.1h-1.9V37h1.9v3.2c0.3-0.2,0.5-0.4,0.8-0.6
	c0.3-0.2,0.7-0.2,1.1-0.2c0.3,0,0.6,0.1,0.9,0.2c0.2,0.1,0.4,0.2,0.5,0.3c0.1,0.1,0.2,0.3,0.3,0.5c0.1,0.2,0.1,0.3,0.1,0.5
	c0,0.2,0,0.3,0,0.6v0V45.5z"/>
<path class="st5" d="M163.3,43c0,0.2,0,0.4-0.1,0.6c0,0.2-0.1,0.4-0.2,0.6s-0.2,0.4-0.4,0.6c-0.2,0.2-0.4,0.4-0.6,0.5
	c-0.2,0.1-0.5,0.2-0.7,0.3s-0.4,0.1-0.6,0.1c-0.2,0-0.3,0-0.5,0c-0.5,0-1-0.1-1.3-0.2c-0.4-0.1-0.6-0.3-0.9-0.4s-0.4-0.4-0.5-0.7
	c-0.1-0.3-0.2-0.5-0.3-0.8c0-0.3-0.1-0.6-0.1-0.9c0-0.2,0-0.4,0-0.6c0-0.2,0-0.4,0.1-0.6c0.1-0.2,0.1-0.5,0.3-0.7
	c0.1-0.2,0.3-0.4,0.5-0.6c0.2-0.2,0.4-0.3,0.6-0.4c0.2-0.1,0.4-0.2,0.7-0.2s0.4-0.1,0.6-0.1c0.2,0,0.3,0,0.5,0s0.3,0,0.5,0
	c0.2,0,0.4,0,0.6,0.1c0.2,0.1,0.5,0.1,0.7,0.3c0.2,0.1,0.4,0.3,0.6,0.5c0.1,0.2,0.2,0.3,0.3,0.5s0.1,0.4,0.2,0.6s0.1,0.4,0.1,0.5
	c0,0.2,0,0.3,0,0.5C163.3,42.6,163.3,42.8,163.3,43z M161.3,41.6c0-0.1,0-0.3,0-0.4c0-0.1-0.1-0.3-0.1-0.4c-0.1-0.1-0.2-0.3-0.3-0.4
	c-0.1-0.1-0.3-0.1-0.5-0.1c-0.2,0-0.4,0-0.5,0.1c-0.2,0.1-0.4,0.3-0.4,0.5c-0.1,0.2-0.1,0.4-0.2,0.7c0,0.4,0,0.7,0,1
	c0,0.3,0,0.5,0,0.8c0,0.1,0,0.3,0.1,0.4s0.1,0.3,0.1,0.4c0.1,0.1,0.2,0.3,0.3,0.4c0.1,0.1,0.3,0.2,0.6,0.2c0.2,0,0.3,0,0.5-0.1
	c0.2-0.1,0.4-0.3,0.4-0.5s0.1-0.5,0.2-0.7c0,0,0,0,0,0c0-0.3,0-0.6,0-1C161.3,42.1,161.3,41.9,161.3,41.6z"/>
<path class="st5" d="M171.6,39.5h1.9v0.7l0,0c0.1-0.1,0.2-0.2,0.3-0.3s0.2-0.2,0.3-0.2c0.4-0.2,0.8-0.3,1.2-0.3c0.1,0,0.3,0,0.4,0
	c0.2,0,0.3,0.1,0.5,0.1c0.2,0.1,0.3,0.2,0.5,0.3s0.3,0.3,0.4,0.5c0.1,0.2,0.2,0.5,0.3,0.8s0.1,0.8,0.1,1.4c0,0.3,0,0.7-0.1,1
	c0,0.3-0.1,0.6-0.2,0.8c-0.1,0.3-0.2,0.5-0.4,0.7c-0.2,0.2-0.4,0.4-0.7,0.5c-0.2,0.1-0.4,0.1-0.5,0.2s-0.4,0-0.5,0
	c-0.4,0-0.8-0.1-1-0.2c-0.2-0.1-0.4-0.3-0.6-0.5V48h-1.9V39.5z M173.5,43.4c0,0.3,0.1,0.6,0.3,0.9s0.4,0.3,0.7,0.3
	c0.2,0,0.3,0,0.4-0.1c0.1,0,0.2-0.1,0.3-0.2s0.1-0.2,0.2-0.3c0.1-0.1,0.1-0.3,0.1-0.6c0-0.2,0.1-0.6,0.1-0.9c0-0.2,0-0.4,0-0.6
	c0-0.2,0-0.4-0.1-0.6c0-0.1,0-0.2-0.1-0.3c0-0.1-0.1-0.2-0.1-0.3c-0.1-0.1-0.2-0.2-0.3-0.3s-0.3-0.1-0.4-0.1c-0.2,0-0.3,0-0.5,0.1
	s-0.3,0.2-0.3,0.3c-0.1,0.1-0.1,0.3-0.2,0.4c0,0.2,0,0.4-0.1,0.6V43.4z"/>
</svg>
